<svg id="familie_rol" data-name="familie rol" xmlns="http://www.w3.org/2000/svg" width="79.038" height="79.038" viewBox="0 0 79.038 79.038">
  <g id="Component_3_37" data-name="Component 3 – 37">
    <g id="Path_722" data-name="Path 722" fill="rgba(234,82,88,0.15)">
      <path d="M 39.51904296875 78.5380859375 C 34.25128555297852 78.5380859375 29.14136505126953 77.50650024414062 24.33122062683105 75.47197723388672 C 19.68492126464844 73.50676727294922 15.5120096206665 70.69327545166016 11.92840957641602 67.10966491699219 C 8.344809532165527 63.52606582641602 5.531320571899414 59.35315322875977 3.56609845161438 54.70685577392578 C 1.531587362289429 49.89672088623047 0.4999985098838806 44.78680038452148 0.4999985098838806 39.51904296875 C 0.4999985098838806 34.25128555297852 1.531587362289429 29.14136505126953 3.56609845161438 24.33122062683105 C 5.531320571899414 19.68492126464844 8.344809532165527 15.5120096206665 11.92840957641602 11.92840957641602 C 15.5120096206665 8.344809532165527 19.68492126464844 5.531320571899414 24.33122062683105 3.56609845161438 C 29.14136505126953 1.531587362289429 34.25128555297852 0.4999985098838806 39.51904296875 0.4999985098838806 C 44.78680038452148 0.4999985098838806 49.89672088623047 1.531587362289429 54.70685577392578 3.56609845161438 C 59.35315322875977 5.531320571899414 63.52606582641602 8.344809532165527 67.10966491699219 11.92840957641602 C 70.69327545166016 15.5120096206665 73.50676727294922 19.68492126464844 75.47197723388672 24.33122062683105 C 77.50650024414062 29.14136505126953 78.5380859375 34.25128555297852 78.5380859375 39.51904296875 C 78.5380859375 44.78680038452148 77.50650024414062 49.89672088623047 75.47197723388672 54.70685577392578 C 73.50676727294922 59.35315322875977 70.69327545166016 63.52606582641602 67.10966491699219 67.10966491699219 C 63.52606582641602 70.69327545166016 59.35315322875977 73.50676727294922 54.70685577392578 75.47197723388672 C 49.89672088623047 77.50650024414062 44.78680038452148 78.5380859375 39.51904296875 78.5380859375 Z" stroke="none"/>
      <path d="M 39.51904296875 1 C 34.31856536865234 1 29.27417755126953 2.018295288085938 24.52599716186523 4.026611328125 C 19.93929672241211 5.966621398925781 15.81980895996094 8.744117736816406 12.28196716308594 12.28196716308594 C 8.744117736816406 15.81980895996094 5.966621398925781 19.93929672241211 4.026611328125 24.52599716186523 C 2.018295288085938 29.27417755126953 1 34.31856536865234 1 39.51904296875 C 1 44.71952056884766 2.018295288085938 49.76390838623047 4.026611328125 54.5120849609375 C 5.966621398925781 59.09878540039062 8.744117736816406 63.21827697753906 12.28196716308594 66.75611877441406 C 15.81980895996094 70.29396820068359 19.93929672241211 73.07146453857422 24.52599716186523 75.011474609375 C 29.27417755126953 77.01979064941406 34.31856536865234 78.0380859375 39.51904296875 78.0380859375 C 44.71952056884766 78.0380859375 49.76390838623047 77.01979064941406 54.5120849609375 75.011474609375 C 59.09878540039062 73.07146453857422 63.21827697753906 70.29396820068359 66.75611877441406 66.75611877441406 C 70.29396820068359 63.21827697753906 73.07146453857422 59.09878540039062 75.011474609375 54.5120849609375 C 77.01979064941406 49.76390838623047 78.0380859375 44.71952056884766 78.0380859375 39.51904296875 C 78.0380859375 34.31856536865234 77.01979064941406 29.27417755126953 75.011474609375 24.52599716186523 C 73.07146453857422 19.93929672241211 70.29396820068359 15.81980895996094 66.75611877441406 12.28196716308594 C 63.21827697753906 8.744117736816406 59.09878540039062 5.966621398925781 54.5120849609375 4.026611328125 C 49.76390838623047 2.018295288085938 44.71952056884766 1 39.51904296875 1 M 39.51904296875 0 C 61.34479904174805 0 79.0380859375 17.69327545166016 79.0380859375 39.51904296875 C 79.0380859375 61.34479904174805 61.34479904174805 79.0380859375 39.51904296875 79.0380859375 C 17.69327545166016 79.0380859375 0 61.34479904174805 0 39.51904296875 C 0 17.69327545166016 17.69327545166016 0 39.51904296875 0 Z" stroke="none" fill="#ea5258"/>
    </g>
  </g>
  <text id="Ik_als" data-name="Ik als" transform="translate(39.519 31.194)" fill="#fff" font-size="14" font-family="Avenir-Light, Avenir" font-weight="300"><tspan x="-15.302" y="0">Ik als</tspan></text>
  <text id="Familielid" transform="translate(39.519 48.634)" fill="#fff" font-size="14" font-family="Avenir-Heavy, Avenir" font-weight="800"><tspan x="-31.409" y="0">Familielid</tspan></text>
</svg>
