<svg xmlns="http://www.w3.org/2000/svg" width="256.337" height="481.659" viewBox="0 0 256.337 481.659">
  <path id="Path_1934" data-name="Path 1934" d="M127.56,0,109.844,17.912,96.379,48.194l-11.654.945L60.946,90.714l-6.614,18.9L18.624,120.992.285,136.3l.1,1.041L8.155,195.46l14.488,47.549,18.9,14.082,20.788,59.833v53.234L95.085,408.05l14.488,54.705,9.271,15.927,20.966-51.522,15.118-19.8,13.858-54.706,16.378-21.467,3.149-50.551,12.6-11.772,7.559-25.854,18.268-15.794,8.189-49.712L255,136.3l-12.616-24.694-52.46-23.73L176.695,65.438l-27.4-20.079Z" transform="translate(0.5 1.28)" fill="#588fcd" stroke="#fff" stroke-width="1.5"/>
</svg>
